<svg width="76.901" height="30" viewBox="0 0 76.901 30" xmlns="http://www.w3.org/2000/svg"><path d="M4.755 30v-.902c.176-.648.584-1.176.704-1.904.068-.4-.13-.878-.195-1.246-.132-.718-.08-2.627.147-3.166.039-.093.74-.41.885-.525.71-.559 1.316-1.3 1.525-2.361.187-.955-.193-1.806-.328-2.56-.081-.447-.062-.81-.148-1.229-.31-1.514-.514-3.491-.197-5.1l.116-.74c.44-1.353 1.528-2.011 2.262-3.066l-.017-.017C6.8 8.218 4.652 9.991 2.56 11.662c-.32.255-.688.596-.903.951-.129.213-.11.594-.262.804-.098.136-1.16.284-1.394.23v-.017l.312-1.296.393-.098.46-.263.902-.819c.61-.493 1.223-.985 1.836-1.477 3.734-2.826 7.632-5.556 12.771-6.971.695-.191 1.424-.267 2.18-.393l1.132-.066c.747-.118 1.428.259 1.918.459l1.41.46c1.282.326 2.757.22 4.28.328l1.426.016 2.738.066c1.146-.199 1.955-.989 2.984-1.411 2.02-.83 4.58-.924 6.985-1.395l2.048-.31c.235-.048.583-.144.87-.1.681.107 1.308.112 1.918.264a32.852 32.852 0 0 1 5.18 1.771l2.034.885c.207.09.55.311.804.263-.039-.366-.015-.723.13-.984.163-.294.643-.19.837-.443.374-.492.674-1.917 1.229-2.116v.033c.419.982-.165 2.967 1.427 2.706.199-.033.407-.018.541-.115.366-.264.582-.776 1-.984.14.438.229 1.682-.017 2.083-.165.27-.574.396-.77.656l-.443.772-.278.048c-.258.073-.58.17-.722.361-.221.301-.045 1.084.148 1.346.128.175.37.275.557.393l.853.59.639-.147 2.77-2.625c.36-.29.856-.968 1.41-1.017.412.15.339.792.263 1.28-.119.773-.369 3.432.132 3.805.212.124.913-.005 1.163-.066a15.321 15.321 0 0 0 2.738-.918c3.615-1.599 6.546-4.265 8.526-7.512h.016c.539.543-.348 2.298-.541 2.739a15.622 15.622 0 0 1-4.754 6.118c-1.054.82-2.167 1.588-3.28 2.362-.688.48-1.5.91-1.934 1.64-.068.115-.195.38-.147.574.058.238.28.447.36.705.176.568.086 2.52-.23 2.87-.103.056-.207.11-.31.165-.452.144-.734-.226-.985-.361-.41-.22-.967-.279-1.59-.279-2.15 0-5.21.779-7.181-.082-.93-.406-1.557-1.112-2.295-1.705-.402-.324-.726-.802-1.329-.92-.934-.18-1.274.456-1.656.936-.202.255-.513.473-.803.64-.559.32-1.455.241-2.049.557-.546.29-.38.977-.262 1.575.043.217.269.513.393.722.418.702.785 1.41 1.23 2.082.158.24.66.774.606 1.148-.097.693-1.038.986-1.525 1.33-1.187.836-2.292 1.695-3.13 2.886-.2.284-.812 1.522-1.115 1.558l-.067-.049c-.13-.18-.261-.361-.393-.541-.431-.57-.864-1.137-1.295-1.706-.227-.296-.69-.69-.525-1.296.287-1.054 1.907-1.54 2.426-2.592-.22-.262-1.106-.915-1.557-.803-.388.548-.684 1.17-1.032 1.755l-1.968 3.379c-.17.286-1.017 1.571-.967 1.902.107.716 1.154.82 1.212 1.428l-.114.196h-5.919c-.041-.079-.126-.207-.082-.36.08-.277.364-.423.525-.624.209-.26.414-.547.574-.853l.967-2.378-.016-.919c.135-.69.438-1.28.672-1.902.11-.295.628-1.447.492-1.804-.77.168-1.542.338-2.312.508-1.51.365-3.077.672-4.901.673H27.2l-3.246-.837c-.516-.135-1.019-.333-1.427-.017-.629.49-.49 1.57-.688 2.51-.04.187-.169.385-.132.623.07.454.491.856.673 1.296.342.827.901 1.33 1.344 2.034.407.647.704 1.346 1.017 2.1l-.017.016-4.984-.016-.016-.017c.132-2.847-1.005-3.723-2.23-5.249-.26-.324-.84-.338-1-.754-.128-.332.003-.758.213-.902.073-.05.198-.043.23-.132.087-.237-.144-.543-.18-.721l.032-.378c.122-.752-.06-1.184-.656-1.295-.711-.133-1.537.026-2.05.23-1.341.532-2.223 1.65-3.032 2.722-.284.372-.57.743-.853 1.115-.281.483-.395 1.079-.623 1.608-.15.347-.57.549-.672.902v1.887c0 .24-.03.544.065.688.222.094.622.339.59.624H4.756Z" fill="#a98759" fill-rule="evenodd"></path></svg>